PathFileType	4	(X/Y/Z)	Patient4_TMGait_0pt7_02_right_12.trc.trc
DataRate	CameraRate	NumFrames	NumMarkers	Units	OrigDataRate	OrigDataStartFrame	OrigNumFrames
86.956521739130	86.956521739130	6	33	mm	86.956521739130	36	       141
Frame#	Time	Sacral			L.Shoulder			Chest			R.Shoulder			Neck			R.ASIS			L.ASIS			R.Thigh.Superior			R.Thigh.Lateral			R.Thigh.Inferior			R.Patella			L.Thigh.Superior			L.Thigh.Lateral			L.Thigh.Inferior			L.Patella			L.Shank.Superior			L.Shank.Lateral			L.Shank.Inferior			R.Shank.Superior			R.Shank.Lateral			R.Shank.Inferior			R.Heel			R.Midfoot.Superior			R.Midfoot.Lateral			R.Toe			L.Heel			L.Midfoot.Lateral			L.Midfoot.Superior			L.Toe			L.Elbow			L.Wrist			R.Elbow			R.Wrist			
		X1	Y1	Z1	X2	Y2	Z2	X3	Y3	Z3	X4	Y4	Z4	X5	Y5	Z5	X6	Y6	Z6	X7	Y7	Z7	X8	Y8	Z8	X9	Y9	Z9	X10	Y10	Z10	X11	Y11	Z11	X12	Y12	Z12	X13	Y13	Z13	X14	Y14	Z14	X15	Y15	Z15	X16	Y16	Z16	X17	Y17	Z17	X18	Y18	Z18	X19	Y19	Z19	X20	Y20	Z20	X21	Y21	Z21	X22	Y22	Z22	X23	Y23	Z23	X24	Y24	Z24	X25	Y25	Z25	X26	Y26	Z26	X27	Y27	Z27	X28	Y28	Z28	X29	Y29	Z29	X30	Y30	Z30	X31	Y31	Z31	X32	Y32	Z32	X33	Y33	Z33	

36	13.222500000000	780.546736979420	999.438552651374	491.842041000685	969.987484989932	1423.710841174542	310.118654602823	1069.307247976163	1353.575840796110	474.394130286300	983.654916601913	1436.388215722132	643.170575475132	971.433602738291	1485.843864685053	461.515398803179	1003.620367409530	935.878600381481	619.736240832096	1001.867481183358	954.556693583278	343.848286915674	1071.726508664474	752.184389116990	594.780828145213	1001.355319135230	632.387181390234	646.719249524524	1092.825326055348	592.638602429739	573.733879317771	1107.313351236361	502.394047703895	580.274469550997	1027.709411372143	732.246383934411	367.044770743600	932.048507414633	623.907541512698	297.928694874561	1011.275721165242	533.104610932291	355.608271314553	998.101518258531	448.996930237001	352.531753110108	928.397245308448	394.051730082896	346.981821788513	788.843746759331	351.020109297865	295.650644228830	773.289087845828	224.723145873882	355.978978355674	1083.395192300228	411.506160990106	581.963813626327	1015.364538077689	301.507205024020	636.533596505036	1068.564807264627	211.234065081910	574.293797339285	945.445061468636	43.895770635877	533.801932354091	1117.111772108523	98.559702055521	574.245903856665	1027.571611006777	37.479306094786	609.172752389972	1236.098362641182	43.029968718487	602.761162896737	581.157247855086	154.759114612859	391.847998849591	641.857357451315	111.735929699820	313.098579574831	745.436469451786	126.938928892181	335.821228420964	829.885195665527	31.971641377341	310.565356387546	948.142209158543	1077.229469395068	190.313083948592	1195.699731959935	1035.193117652024	231.263968114228	858.760062040192	1113.493093525150	759.597359268166	842.856569522103	851.997685441100	755.078435903202	
37	13.234000000000	780.653764902944	1001.328943253562	495.301976879690	969.290444362685	1425.863519306516	312.594937473578	1070.012290746364	1354.960572049455	475.663555820708	986.222243093910	1437.523980393078	645.401366882963	972.142596539613	1487.467951453434	464.153975894635	1004.469731654163	937.390125597683	621.064430053903	1001.030901232916	956.210703638317	345.477004514620	1069.828161244291	751.475076343699	597.834905157642	997.304033034656	632.813659891030	648.640307443770	1088.556407594451	592.142851011760	575.710292343884	1101.733647801664	501.982687088976	581.738687142437	1031.776233236839	735.613974163476	368.464538267213	940.073604136430	625.043477636143	298.666180902272	1022.385589827773	535.925756655960	355.617936067368	1010.352188639683	450.701755698217	352.002191681849	938.914633494112	395.873955658376	346.986360335626	797.590554464710	357.386055105081	296.636882522723	778.634161081831	231.461750940843	356.605549794355	1077.358912964739	411.477768346977	583.436952676131	1008.620742346531	301.783642556272	637.744794059193	1061.484292277097	211.379134705653	575.318312422749	937.540198516561	44.192780751325	534.204522038295	1109.232440447708	98.617575834901	574.753891381881	1019.685634950876	37.482633021497	609.466442800878	1228.175927334837	42.792876551938	603.140013227025	584.335699073458	169.386222464227	393.468316589787	642.727410934654	123.911766062524	314.146970464568	747.349096479678	133.850801411083	336.401664368942	826.649594042259	32.672070130389	310.080568108514	943.477440057241	1079.161174604273	194.218837277103	1188.408772746912	1018.416861715491	232.142863009190	866.702535995357	1112.023363647846	762.302141727032	860.346091708382	850.068718224781	757.461921607491	
38	13.245500000000	780.586025479731	1003.164926826801	498.612496541364	968.203953282647	1427.938039887855	315.015372195713	1070.515136064170	1356.235789876446	476.765708015495	988.697655190423	1438.436164232463	647.590434823948	972.620887303074	1489.011627840648	466.801212900626	1005.156148834732	938.794444034886	622.128622847359	999.814621780907	957.611124019545	346.896923851644	1067.687630456230	750.757366220762	600.456642366103	993.329927749227	633.289305395210	650.401356390056	1084.133405038449	591.704783041344	577.282923615707	1096.034093998057	501.631769931660	582.943131288972	1035.567711468129	739.208606363061	369.594255546694	947.765379921917	626.593010653682	299.124828509774	1033.071443977201	539.280539681084	355.311259733825	1022.375801415408	453.030122830748	351.227754271785	949.521976757842	398.147638798995	346.724709141077	806.661871523677	363.670012024600	297.519435302617	784.822526224912	238.147791945476	357.213002161850	1071.233133994485	411.483823068677	584.728340869488	1001.834910649188	302.106265984942	638.854893001089	1054.373206602664	211.561275738209	576.268836943405	929.592430606009	44.592256018949	534.599977071531	1101.360965692026	98.603666711475	575.207770972494	1011.761149442699	37.484196158623	609.731367644845	1220.228446977276	42.450837367309	603.452097170715	588.972272780240	182.820887263519	395.382105084198	645.149092705539	135.541632667027	315.341956536957	750.546637705466	140.952305794654	336.993165103042	825.298746904953	34.207238175397	309.278581043613	938.979715503593	1080.930307916034	198.112982015978	1179.698800315962	1000.937908751624	232.620070722022	874.818000800738	1110.414152001211	765.022659093930	878.495882720934	848.281448781776	760.145446790301	
39	13.257000000000	780.361391927760	1004.938664777302	501.730605866904	966.818368545143	1429.902176980148	317.354275204568	1070.823255404315	1357.384809312778	477.722038489408	991.041033831940	1439.146675216832	649.713756017407	972.909548328353	1490.471675399347	469.411568776528	1005.664053927779	940.113572148141	622.992129663961	998.213815330389	958.751093933023	348.133603523773	1065.387558649177	750.145695868064	602.533755168384	989.569898666462	633.859806868389	652.004649672018	1079.691736395138	591.367408049442	578.476181689995	1090.346770102570	501.368114598350	583.949598626406	1039.018066951540	743.025082280917	370.437738963712	955.001845452463	628.568555291520	299.308066040985	1043.207122038845	543.165582445549	354.673627532708	1034.055809896767	455.983325086041	350.139968919585	960.122129975287	400.861308915872	346.142502989402	815.952076255945	369.715218201833	298.243734728393	791.889652427030	244.555259761726	357.715378388047	1065.134040639888	411.539274412924	585.860922122803	995.094989194951	302.505905000860	639.883173506371	1047.278067910736	211.791244281461	577.155718310179	921.608410594535	45.111231803816	535.004237219017	1093.508469966545	98.541688515437	575.620631485782	1003.807237640434	37.502789771461	609.984487745213	1212.261531276913	42.034853109369	603.709578347899	595.067869007437	194.557742386604	397.476452061792	649.219988278406	146.129712029806	316.598428167991	755.166257930314	147.931856279497	337.497992077804	826.162917691510	36.583810266688	308.142600090786	934.576884100298	1082.483903790342	201.990630650192	1169.365620462335	983.018243066056	232.693297717650	883.199766389361	1108.641680186984	767.695411678015	897.245848714921	846.679209998406	763.029252319955	
40	13.268500000000	780.002975760524	1006.638928186349	504.632286216379	965.224478017447	1431.735999012891	319.589319047480	1070.942766415795	1358.407416511030	478.558769124635	993.208055207810	1439.694978971930	651.746430059240	973.042971758439	1491.848154236552	471.937296801174	1005.988299056032	941.369561044372	623.718204514737	996.253385882952	959.659742297810	349.221022725220	1062.993762707195	749.709961516957	604.026450123688	986.072056522553	634.536238815449	653.448248406703	1075.321234308344	591.143203715900	579.347292384803	1084.757233027250	501.198671047507	584.810053821211	1042.087727980196	747.048811305186	371.008074096372	961.706922883421	630.956708662953	299.223183129553	1052.717694162520	547.553509188665	353.699799204395	1045.311967323748	459.541759243529	348.692261255508	970.652121917937	403.981334751367	345.207118154377	825.394565147880	375.356833315683	298.749695902992	799.877255002735	250.463277140365	358.030804846922	1059.134642334336	411.647164385507	586.855978996736	988.448920463758	302.995107950910	640.834859745641	1040.224189864375	212.070953370465	577.985217477074	913.597785863756	45.747284946870	535.422931130730	1085.680066199601	98.458130288162	576.005525146991	995.833924732787	37.550843304241	610.237018219180	1204.279809256289	41.583484899389	603.927926097661	602.604575931532	204.191835605862	399.606298222949	655.011259301010	155.241110507062	317.812130059953	761.327975522006	154.467913980192	337.826942560928	829.506928638736	39.686245104654	306.685288173611	930.172326733882	1083.810268691287	205.842593294612	1157.236630699545	964.956120892205	232.383026755873	891.942429952485	1106.710112763493	770.256383987462	916.572634561643	845.325842465809	765.986047276137	
41	13.280000000000	779.533302432551	1008.249581918208	507.309470953447	963.503435129728	1433.426956662241	321.701990840428	1070.879067332208	1359.314684263646	479.303388955036	995.154458889976	1440.127384585962	653.665555226445	973.045418635314	1493.140207799273	474.334095393559	1006.132904122564	942.576210554928	624.359656293817	993.989214537705	960.392847096967	350.191353009269	1060.550859011535	749.470971106072	604.964936075615	982.807676056231	635.299025040356	654.726212204612	1071.061326933639	591.016111467435	579.970286721585	1079.299692624190	501.111072038364	585.559204597780	1044.761874133543	751.252893726952	371.325254203194	967.847844180650	633.718959125490	298.882147526604	1061.570849520082	552.392812198754	352.399107436843	1056.093740520942	463.664592275315	346.871697939495	981.075033874213	407.453299610320	343.915913232199	834.956899281997	380.432851671408	298.979541521346	808.820101804202	255.673019485796	358.091311798311	1053.261476973947	411.797211315281	587.727099138454	981.905722961537	303.566155753539	641.701009409662	1033.215279136361	212.390745475816	578.755024545994	905.569634382175	46.476826535722	535.849842854945	1077.874262282998	98.377241996107	576.371682748978	987.848951847948	37.633089068316	610.492278067481	1196.286110246281	41.134897793939	604.121639076979	611.547972950813	211.440651010717	401.609684879129	662.562883357094	162.532876908974	318.870306848543	769.119394028315	160.258961074294	337.907397842016	835.504686695132	43.290736295968	304.943982484582	925.658400653612	1084.931546619955	209.651274830859	1143.186265625418	947.076649915768	231.730633780148	901.123341239765	1104.649713935259	772.646324280814	936.478970905427	844.304931515586	768.874438121786	
